CD_DA

CATALOG "0602465081343"

// Track 1
TRACK AUDIO
NO COPY
NO PRE_EMPHASIS
TWO_CHANNEL_AUDIO
ISRC "USUG12401028"
FILE "without-cd-text.bin" 0 03:48:72


// Track 2
TRACK AUDIO
NO COPY
NO PRE_EMPHASIS
TWO_CHANNEL_AUDIO
ISRC "USUG12401029"
FILE "without-cd-text.bin" 03:48:72 04:53:04


// Track 3
TRACK AUDIO
NO COPY
NO PRE_EMPHASIS
TWO_CHANNEL_AUDIO
ISRC "USUG12401030"
FILE "without-cd-text.bin" 08:42:01 03:23:60


// Track 4
TRACK AUDIO
NO COPY
NO PRE_EMPHASIS
TWO_CHANNEL_AUDIO
ISRC "USUG12401031"
FILE "without-cd-text.bin" 12:05:61 04:21:17


// Track 5
TRACK AUDIO
NO COPY
NO PRE_EMPHASIS
TWO_CHANNEL_AUDIO
ISRC "USUG12401032"
FILE "without-cd-text.bin" 16:27:03 04:22:73


// Track 6
TRACK AUDIO
NO COPY
NO PRE_EMPHASIS
TWO_CHANNEL_AUDIO
ISRC "USUG12401033"
FILE "without-cd-text.bin" 20:50:01 05:40:32


// Track 7
TRACK AUDIO
NO COPY
NO PRE_EMPHASIS
TWO_CHANNEL_AUDIO
ISRC "USUG12401034"
FILE "without-cd-text.bin" 26:30:33 03:30:59


// Track 8
TRACK AUDIO
NO COPY
NO PRE_EMPHASIS
TWO_CHANNEL_AUDIO
ISRC "USUG12401035"
FILE "without-cd-text.bin" 30:01:17 03:35:35


// Track 9
TRACK AUDIO
NO COPY
NO PRE_EMPHASIS
TWO_CHANNEL_AUDIO
ISRC "USUG12401036"
FILE "without-cd-text.bin" 33:36:52 04:14:27


// Track 10
TRACK AUDIO
NO COPY
NO PRE_EMPHASIS
TWO_CHANNEL_AUDIO
ISRC "USUG12401037"
FILE "without-cd-text.bin" 37:51:04 05:34:07


// Track 11
TRACK AUDIO
NO COPY
NO PRE_EMPHASIS
TWO_CHANNEL_AUDIO
ISRC "USUG12401038"
FILE "without-cd-text.bin" 43:25:11 02:36:22


// Track 12
TRACK AUDIO
NO COPY
NO PRE_EMPHASIS
TWO_CHANNEL_AUDIO
ISRC "USUG12401039"
FILE "without-cd-text.bin" 46:01:33 04:37:12


// Track 13
TRACK AUDIO
NO COPY
NO PRE_EMPHASIS
TWO_CHANNEL_AUDIO
ISRC "USUG12401040"
FILE "without-cd-text.bin" 50:38:45 03:38:00


// Track 14
TRACK AUDIO
NO COPY
NO PRE_EMPHASIS
TWO_CHANNEL_AUDIO
ISRC "USUG12401041"
FILE "without-cd-text.bin" 54:16:45 04:05:41


// Track 15
TRACK AUDIO
NO COPY
NO PRE_EMPHASIS
TWO_CHANNEL_AUDIO
ISRC "USUG12401042"
FILE "without-cd-text.bin" 58:22:11 03:16:67


// Track 16
TRACK AUDIO
NO COPY
NO PRE_EMPHASIS
TWO_CHANNEL_AUDIO
ISRC "USUG12401043"
FILE "without-cd-text.bin" 61:39:03 03:36:50


// Track 17
TRACK AUDIO
NO COPY
NO PRE_EMPHASIS
TWO_CHANNEL_AUDIO
ISRC "USUG12401044"
FILE "without-cd-text.bin" 65:15:53 03:44:60

